<?xml version="1.0" standalone="no"?>
<!DOCTYPE svg PUBLIC "-//W3C//DTD SVG 20010904//EN"
 "http://www.w3.org/TR/2001/REC-SVG-20010904/DTD/svg10.dtd">
<svg version="1.0" xmlns="http://www.w3.org/2000/svg"
 width="1200.000000pt" height="1200.000000pt" viewBox="0 0 1200.000000 1200.000000"
 preserveAspectRatio="xMidYMid meet">
<metadata>
Created by potrace 1.11, written by Peter Selinger 2001-2013
</metadata>
<g transform="translate(0.000000,1200.000000) scale(0.100000,-0.100000)"
fill="#000000" stroke="none">
<path d="M4817 9390 l-1188 -2180 778 -1443 777 -1443 344 630 c189 347 352
645 362 661 16 26 17 34 5 60 -7 17 -198 369 -424 783 -226 415 -411 757 -411
762 0 7 935 1688 944 1697 5 5 946 -1684 946 -1697 0 -16 -928 -1719 -951
-1745 -20 -24 -94 -167 -91 -177 1 -5 -2 -8 -6 -8 -5 0 -9 -6 -9 -12 0 -7
-121 -245 -268 -528 -147 -283 -282 -544 -299 -580 -23 -49 -602 -1127 -610
-1137 -1 -1 -70 122 -155 273 l-153 274 1 753 c1 733 1 751 -17 722 -46 -75
-1115 -2018 -1118 -2033 -3 -10 200 -381 476 -872 265 -470 590 -1049 723
-1287 133 -238 244 -432 247 -432 7 0 1247 2228 1323 2379 482 946 639 1252
687 1340 32 58 416 770 854 1583 l795 1477 -1181 2168 c-649 1192 -1183 2173
-1187 2179 -4 8 -512 -916 -1194 -2167z"/>
<path d="M7601 4334 l4 -750 -154 -277 c-132 -237 -156 -275 -166 -260 -6 10
-117 213 -245 451 -128 237 -236 432 -240 432 -7 0 -689 -1319 -696 -1348 -6
-20 1169 -2137 1186 -2137 8 0 1405 2472 1442 2552 9 18 -69 164 -557 1050
-312 565 -570 1030 -572 1033 -3 3 -3 -333 -2 -746z"/>
</g>
</svg>
